<?xml version="1.0" encoding="UTF-8" standalone="no"?>
<!DOCTYPE svg PUBLIC "-//W3C//DTD SVG 20010904//EN"
              "http://www.w3.org/TR/2001/REC-SVG-20010904/DTD/svg10.dtd">

<svg xmlns="http://www.w3.org/2000/svg"
     width="2.40625in" height="2.60417in"
     viewBox="0 0 231 250">
  <path id="Selection #1"
        fill="white" stroke="black" stroke-width="1"
        d="M 140.00,0.00
           C 140.00,0.00 128.26,25.00 128.26,25.00
             128.26,25.00 115.75,51.00 115.75,51.00
             115.75,51.00 103.00,77.00 103.00,77.00
             103.00,77.00 88.00,63.00 88.00,63.00
             88.00,63.00 83.00,91.00 83.00,91.00
             83.00,91.00 23.00,74.12 23.00,74.12
             23.00,74.12 0.00,68.00 0.00,68.00
             0.00,68.00 23.00,93.00 23.00,93.00
             26.47,96.50 29.02,100.06 34.00,101.00
             34.00,101.00 35.00,102.00 35.00,102.00
             36.13,108.00 48.71,119.00 53.00,125.00
             53.00,125.00 40.00,132.00 40.00,132.00
             40.00,132.00 63.00,145.00 63.00,145.00
             63.00,145.00 44.00,190.00 44.00,190.00
             44.00,190.00 81.00,182.00 81.00,182.00
             81.00,182.00 79.00,209.00 79.00,209.00
             79.00,209.00 78.09,221.00 78.09,221.00
             78.09,221.00 77.00,250.00 77.00,250.00
             77.00,250.00 94.17,220.00 94.17,220.00
             94.17,220.00 111.00,189.00 111.00,189.00
             111.00,189.00 121.00,198.04 121.00,198.04
             127.94,204.67 136.39,215.01 145.00,219.00
             145.00,219.00 147.00,179.00 147.00,179.00
             147.00,179.00 192.00,195.42 192.00,195.42
             192.00,195.42 216.00,204.00 216.00,204.00
             213.93,196.95 207.24,192.57 202.00,187.83
             202.00,187.83 180.00,166.00 180.00,166.00
             175.67,161.67 171.60,156.65 166.00,154.00
             166.00,154.00 166.00,151.00 166.00,151.00
             166.00,151.00 231.00,128.00 231.00,128.00
             231.00,128.00 210.00,122.58 210.00,122.58
             210.00,122.58 159.00,110.00 159.00,110.00
             159.00,110.00 168.00,91.00 168.00,91.00
             168.00,91.00 143.00,94.00 143.00,94.00
             141.77,84.68 142.43,85.44 142.22,77.00
             142.22,77.00 142.22,50.00 142.22,50.00
             142.22,50.00 141.00,35.00 141.00,35.00
             140.92,27.81 142.03,5.12 140.00,0.00 Z
           M 5.00,70.00
           C 5.00,70.00 5.00,71.00 5.00,71.00
             5.00,71.00 4.00,70.00 4.00,70.00
             4.00,70.00 5.00,70.00 5.00,70.00 Z
           M 39.00,104.00
           C 39.00,104.00 39.00,105.00 39.00,105.00
             39.00,105.00 38.00,104.00 38.00,104.00
             38.00,104.00 39.00,104.00 39.00,104.00 Z" />
</svg>
