<?xml version="1.0" encoding="UTF-8" standalone="no"?>
<!DOCTYPE svg PUBLIC "-//W3C//DTD SVG 20010904//EN"
              "http://www.w3.org/TR/2001/REC-SVG-20010904/DTD/svg10.dtd">

<svg xmlns="http://www.w3.org/2000/svg"
     width="43.3494mm" height="43.3494mm"
     viewBox="0 0 512 512">
  <path id="Selection"
        fill="white" stroke="grey" stroke-width="1"
        d="M 463.00,43.00
           C 456.73,45.67 444.12,56.04 438.00,60.63
             438.00,60.63 390.00,97.13 390.00,97.13
             390.00,97.13 314.00,154.63 314.00,154.63
             314.00,154.63 238.00,212.00 238.00,212.00
             238.00,212.00 185.00,251.87 185.00,251.87
             185.00,251.87 171.00,262.63 171.00,262.63
             169.31,263.91 165.95,266.21 165.16,268.17
             163.82,271.53 168.45,276.43 170.37,279.00
             170.37,279.00 190.00,305.00 190.00,305.00
             195.73,302.56 203.88,295.81 209.00,291.79
             210.72,290.44 215.26,286.31 217.47,286.72
             220.52,287.28 225.11,298.08 226.14,301.00
             231.94,317.48 230.86,334.65 222.33,350.00
             211.95,368.69 191.54,381.75 170.00,382.00
             156.11,382.15 153.19,379.28 141.00,376.00
             141.00,376.00 171.00,322.00 171.00,322.00
             174.81,329.43 175.82,336.06 181.04,343.00
             186.25,349.92 195.25,357.71 204.00,359.46
             210.98,360.85 217.66,355.05 216.62,348.00
             215.38,339.62 206.84,339.47 200.33,331.96
             192.46,322.88 193.18,312.42 190.15,308.21
             185.47,301.71 175.47,302.44 171.00,312.00
             171.00,312.00 154.13,290.00 154.13,290.00
             152.56,287.93 149.69,283.29 146.91,283.16
             143.69,283.01 138.20,288.83 136.00,291.00
             136.00,291.00 111.00,314.42 111.00,314.42
             111.00,314.42 84.00,339.91 84.00,339.91
             84.00,339.91 31.00,389.17 31.00,389.17
             31.00,389.17 3.00,415.00 3.00,415.00
             4.84,422.45 16.33,435.27 21.37,442.00
             21.37,442.00 65.00,500.00 65.00,500.00
             65.00,500.00 67.00,500.00 67.00,500.00
             67.00,500.00 106.80,433.00 106.80,433.00
             106.80,433.00 129.00,394.00 129.00,394.00
             168.01,415.61 218.66,401.87 240.85,363.00
             247.26,351.78 250.98,338.97 251.00,326.00
             251.04,299.70 247.60,293.53 235.00,271.00
             241.10,268.40 251.15,259.76 257.00,255.37
             257.00,255.37 300.00,222.87 300.00,222.87
             300.00,222.87 442.00,115.63 442.00,115.63
             442.00,115.63 490.00,79.13 490.00,79.13
             493.31,76.65 505.60,68.73 505.89,64.96
             506.13,61.90 499.16,53.71 497.13,51.00
             497.13,51.00 475.99,23.00 475.99,23.00
             473.18,19.13 468.36,11.89 463.96,10.15
             457.41,7.55 450.20,12.07 449.43,19.00
             449.00,22.83 450.90,26.02 453.05,29.00
             453.05,29.00 463.00,43.00 463.00,43.00 Z
           M 319.00,227.00
           C 319.00,227.00 293.00,246.63 293.00,246.63
             290.74,248.32 284.12,252.77 283.25,255.17
             281.89,258.93 289.48,267.05 291.79,270.00
             291.79,270.00 321.00,309.00 321.00,309.00
             321.00,309.00 360.00,281.00 360.00,281.00
             357.42,274.96 349.37,265.72 345.15,260.00
             339.79,252.73 324.93,231.64 319.00,227.00 Z" />
</svg>
