<?xml version="1.0" encoding="UTF-8" standalone="no"?>
<!-- Created with Inkscape (http://www.inkscape.org/) -->

<svg
   xmlns:dc="http://purl.org/dc/elements/1.1/"
   xmlns:cc="http://creativecommons.org/ns#"
   xmlns:rdf="http://www.w3.org/1999/02/22-rdf-syntax-ns#"
   xmlns:svg="http://www.w3.org/2000/svg"
   xmlns="http://www.w3.org/2000/svg"
   xmlns:sodipodi="http://sodipodi.sourceforge.net/DTD/sodipodi-0.dtd"
   xmlns:inkscape="http://www.inkscape.org/namespaces/inkscape"
   id="svg4165"
   version="1.1"
   inkscape:version="0.92.4 (5da689c313, 2019-01-14)"
   width="50"
   height="50"
   viewBox="0 0 50 50"
   sodipodi:docname="Madurai_P.svg">
  <metadata
     id="metadata4171">
    <rdf:RDF>
      <cc:Work
         rdf:about="">
        <dc:format>image/svg+xml</dc:format>
        <dc:type
           rdf:resource="http://purl.org/dc/dcmitype/StillImage" />
        <dc:title></dc:title>
      </cc:Work>
    </rdf:RDF>
  </metadata>
  <defs
     id="defs4169" />
  <sodipodi:namedview
     pagecolor="#ffffff"
     bordercolor="#666666"
     borderopacity="1"
     objecttolerance="10"
     gridtolerance="10"
     guidetolerance="10"
     inkscape:pageopacity="0"
     inkscape:pageshadow="2"
     inkscape:window-width="1366"
     inkscape:window-height="705"
     id="namedview4167"
     showgrid="false"
     inkscape:zoom="4.72"
     inkscape:cx="25"
     inkscape:cy="25"
     inkscape:window-x="-8"
     inkscape:window-y="32"
     inkscape:window-maximized="1"
     inkscape:current-layer="svg4165" />
  <path
     style="fill:#000000;fill-opacity:1;fill-rule:evenodd;stroke:#000000;stroke-width:1px;stroke-linecap:butt;stroke-linejoin:miter;stroke-opacity:1"
     d="m 10.59322,45.127118 0.635593,-29.449152 c 0,0 -2.3305077,-2.542373 -5.5084737,-4.025424 C 13.559322,8.2627119 19.915254,4.8728813 19.915254,4.8728813 l 0.211865,18.6440677 c 8.68644,-6.991526 16.313559,-13.9830507 16.313559,-13.9830507 5.932204,-1.2711865 9.322034,5.2966097 9.322034,5.2966097 0,0 -26.483051,7.415255 -35.169492,30.29661 z"
     id="path4715"
     inkscape:connector-curvature="0"
     sodipodi:nodetypes="cccccccc" />
  <path
     style="fill:#4400aa;stroke-width:0.21186441"
     d="m 10.298568,44.877983 c -0.06152,-0.160328 0.03816,-6.762553 0.221517,-14.67161 L 10.853464,15.826271 9.9500373,15.006067 C 8.8739992,14.029153 7.0698854,12.781923 5.7951472,12.133685 5.2886222,11.876104 4.9072663,11.634354 4.9476895,11.596464 c 0.040423,-0.03789 1.5035817,-0.707567 3.251463,-1.488171 1.7478814,-0.7806036 5.1296355,-2.3875489 7.5150085,-3.5709896 2.385373,-1.1834406 4.411327,-2.1834898 4.502118,-2.2223316 0.09079,-0.038842 0.177538,3.345692 0.192768,7.5211862 0.01523,4.175495 0.08673,8.296635 0.158899,9.158089 l 0.131207,1.566282 2.648305,-2.187112 c 3.131974,-2.586553 7.968701,-6.764853 10.859326,-9.381039 1.94611,-1.7613456 2.132835,-1.877514 3.193849,-1.9870206 1.383575,-0.1427972 3.235803,0.3497841 4.615028,1.2273196 1.7046,1.084554 4.45039,4.29681 4.124114,4.824735 -0.06535,0.105742 -0.381904,0.255748 -0.703451,0.333346 -1.156182,0.279022 -4.233703,1.473529 -6.706754,2.603156 -10.103922,4.615212 -18.404142,11.370014 -23.573905,19.184677 -1.238053,1.871453 -3.172972,5.516337 -3.876513,7.302341 -0.279105,0.708534 -0.782794,0.912483 -0.980584,0.397051 z"
     id="path3723"
     inkscape:connector-curvature="0" />
  <path
     style="fill:#5500d4;stroke-width:0.21186441"
     d="m 10.419721,41.938559 c -0.0022,-1.660487 0.108972,-8.208902 0.247059,-14.552034 L 10.917847,15.853557 9.8064485,14.831624 C 9.1951794,14.26956 7.8915538,13.318688 6.9095025,12.718574 5.9274515,12.11846 5.1485016,11.607139 5.1785029,11.582304 5.2085043,11.55747 6.9491525,10.750532 9.0466102,9.7891081 11.144068,8.8276843 14.467333,7.236764 16.431643,6.2537294 18.395954,5.270695 20.053347,4.5166243 20.11474,4.5780169 c 0.06139,0.061393 0.172225,4.0652333 0.246294,8.8974241 0.07407,4.83219 0.203697,8.854827 0.288062,8.939192 0.08436,0.08437 0.320819,0.01075 0.525453,-0.163594 0.204633,-0.174341 1.849815,-1.547885 3.655959,-3.052321 1.806145,-1.504435 4.857602,-4.118093 6.78102,-5.808129 5.428584,-4.7699004 4.684067,-4.3010293 6.664425,-4.1970333 2.281098,0.1197888 3.799077,0.9175413 5.845742,3.0721483 1.56632,1.648926 2.105138,2.497467 1.772981,2.792118 -0.107538,0.0954 -1.101244,0.483752 -2.208235,0.863012 -5.883219,2.015616 -12.986947,5.946174 -18.321288,10.137335 -2.246295,1.764903 -7.036624,6.672 -8.72905,8.941831 -1.670692,2.240682 -4.144228,6.43739 -5.049178,8.566659 -0.940137,2.212055 -1.162518,1.901862 -1.167204,-1.6281 z"
     id="path3725"
     inkscape:connector-curvature="0" />
</svg>
